<svg xmlns="http://www.w3.org/2000/svg" enable-background="new 0 0 32 32" viewBox="0 0 32 32"><path fill="#E3F8FA" d="M26,32H6c-3.314,0-6-2.686-6-6V6c0-3.314,2.686-6,6-6h20c3.314,0,6,2.686,6,6v20C32,29.314,29.314,32,26,32z"/><path fill="#8CE1EB" fill-rule="evenodd" d="M13.422 21.048C10.274 20.33 8 18.336 8 16c0-.292.036-.579.104-.858 1.534-.417 5.559-1.036 6.296-.548C14.884 14.879 13.942 18.711 13.422 21.048L13.422 21.048zM23.895 15.141C23.964 15.421 24 15.708 24 16c0 2.341-2.283 4.338-5.441 5.053-.52-2.338-1.461-6.174-.978-6.459C18.317 14.107 22.359 14.724 23.895 15.141L23.895 15.141z" clip-rule="evenodd"/><path fill="#26C6DA" fill-rule="evenodd" d="M16,10.667c3.451,0,6.403,1.47,7.522,3.518c-1.286-0.2-7.244-1.631-7.178-0.45v7.593c-0.114,0.004-0.228,0.006-0.344,0.006c-0.122,0-0.243-0.002-0.364-0.006v-7.592c0.066-1.18-5.863,0.246-7.158,0.449C9.597,12.136,12.549,10.667,16,10.667L16,10.667z" clip-rule="evenodd"/></svg>