<svg xmlns="http://www.w3.org/2000/svg" enable-background="new 0 0 24 24" viewBox="0 0 24 24"><path fill-rule="evenodd" d="M8.133 19.572C3.411 18.495 0 15.505 0 12c0-.439.054-.868.156-1.287C2.457 10.088 8.495 9.159 9.6 9.891 10.325 10.318 8.912 16.066 8.133 19.572L8.133 19.572zM23.843 10.711C23.946 11.131 24 11.561 24 12c0 3.512-3.425 6.507-8.162 7.579-.78-3.507-2.192-9.261-1.467-9.688C15.475 9.16 21.538 10.086 23.843 10.711L23.843 10.711z" clip-rule="evenodd"/><path fill-rule="evenodd" d="M12,4c5.177,0,9.605,2.205,11.282,5.277c-1.929-0.3-10.866-2.446-10.767-0.675v11.389C12.345,19.997,12.173,20,12,20c-0.183,0-0.364-0.003-0.545-0.009V8.602c0.099-1.769-8.794,0.369-10.736,0.674C2.395,6.204,6.824,4,12,4L12,4z" clip-rule="evenodd"/></svg>