<svg xmlns="http://www.w3.org/2000/svg" enable-background="new 0 0 36 36" viewBox="0 0 36 36"><path fill="#EFEFEF" d="M27.417,3.914c-6.915,0.129-11.732-3.365-15.064-3.302S2.057,2.721,2.344,18.052s9.744,17.404,13.41,17.336C32.917,35.067,39.665,3.685,27.417,3.914z"/><path fill="#2FDF84" fill-rule="evenodd" d="M14.374 25.294C9.948 24.312 6.75 21.586 6.75 18.39c0-.4.051-.792.147-1.174 2.157-.57 7.818-1.416 8.853-.749C16.43 16.857 15.105 22.098 14.374 25.294zM29.102 17.209c.097.383.148.775.148 1.175 0 3.202-3.211 5.933-7.652 6.91-.732-3.198-2.055-8.444-1.375-8.833C21.258 15.794 26.942 16.639 29.102 17.209z" clip-rule="evenodd"/><path fill="#F3F3F1" fill-rule="evenodd" d="M18,10.25c-4.853,0-9.005,2.01-10.577,4.81c1.821-0.277,10.67-2.227,10.577-0.614h0.015c-0.093-1.615,8.754,0.342,10.562,0.615C27.005,12.26,22.854,10.25,18,10.25z" clip-rule="evenodd"/><path fill="#00B871" fill-rule="evenodd" d="M9 18.391c0-.4.051-.792.147-1.174 1.303-.344 3.88-.787 5.948-.939-1.846-.253-6.332.446-8.198.939C6.801 17.599 6.75 17.99 6.75 18.391c0 3.195 3.198 5.922 7.624 6.904.047-.204.096-.417.147-.636C11.222 23.384 9 21.052 9 18.391zM22.473 16.461c.14-.09.37-.151.66-.19-1.359-.099-2.501-.074-2.91.19-.679.389.644 5.635 1.375 8.833.74-.163 1.442-.378 2.104-.633C22.957 21.449 21.837 16.826 22.473 16.461z" clip-rule="evenodd"/><path fill="#D5DBE1" fill-rule="evenodd" d="M19.125 10.291C18.754 10.267 18.38 10.25 18 10.25c-4.853 0-9.005 2.01-10.577 4.81.469-.072 1.409-.254 2.539-.459C11.567 12.256 15.028 10.557 19.125 10.291zM17.203 13.879c.513.086.815.263.798.567h.015c-.021-.361.421-.537 1.117-.6C18.611 13.8 17.949 13.816 17.203 13.879zM21.057 13.879c2.713.228 6.419 1.016 7.521 1.182-.087-.156-.186-.308-.289-.459C25.865 14.164 22.554 13.627 21.057 13.879z" clip-rule="evenodd"/><path fill="#A4AFC1" d="M31.497,10.75c-0.827,0-1.5-0.673-1.5-1.5s0.673-1.5,1.5-1.5s1.5,0.673,1.5,1.5S32.324,10.75,31.497,10.75z M31.497,8.75c-0.276,0-0.5,0.224-0.5,0.5s0.224,0.5,0.5,0.5s0.5-0.224,0.5-0.5S31.773,8.75,31.497,8.75z"/><rect width="1" height="2" x="3.5" y="23.943" fill="#A4AFC1"/><rect width="1" height="2" x="3.5" y="29.693" fill="#A4AFC1"/><rect width="2" height="1" y="27.193" fill="#A4AFC1"/><rect width="2" height="1" x="5.75" y="27.193" fill="#A4AFC1"/><g><path d="M14.375 26.044c-.054 0-.108-.006-.163-.018C9.3 24.938 6 21.869 6 18.391c0-.45.057-.906.169-1.355.066-.265.271-.474.536-.543 1.31-.346 7.952-1.621 9.451-.654.868.496.744 1.915-.771 8.417l-.28 1.206C15.026 25.809 14.717 26.044 14.375 26.044zM7.54 17.83c-.027.188-.04.375-.04.561 0 2.598 2.508 4.948 6.315 5.992l.109-.468c.482-2.069 1.355-5.816 1.269-6.862C14.077 16.777 10.011 17.248 7.54 17.83zM21.598 26.044c-.342 0-.651-.235-.73-.583l-.274-1.183c-1.521-6.527-1.646-7.952-.743-8.468 1.472-.948 8.129.328 9.443.674.263.069.468.276.536.541C29.943 17.47 30 17.928 30 18.384c0 3.487-3.312 6.559-8.241 7.643C21.705 26.038 21.651 26.044 21.598 26.044zM20.781 17.037c-.093 1.038.787 4.816 1.273 6.901l.103.446c3.824-1.041 6.343-3.396 6.343-6.001 0-.188-.013-.375-.04-.562C25.965 17.234 21.84 16.762 20.781 17.037zM7.423 15.811c-.244 0-.476-.119-.617-.323-.163-.236-.178-.544-.037-.794C8.513 11.587 13.026 9.5 18 9.5V11c-3.574 0-6.851 1.148-8.771 2.974 5.159-.942 8.152-1.27 9.129-.409.273.241.412.569.391.925l-1.497-.087c-.009.146.081.269.129.298-.583-.365-3.424-.079-8.448.852-.607.113-1.095.203-1.396.249C7.499 15.808 7.461 15.811 7.423 15.811z"/><path d="M28.578,15.812c-0.037,0-0.075-0.003-0.112-0.008c-0.303-0.046-0.801-0.138-1.421-0.253c-5-0.927-7.83-1.213-8.409-0.849c0.047-0.03,0.137-0.152,0.128-0.298l-1.497,0.087c-0.021-0.356,0.118-0.685,0.392-0.926c0.973-0.86,3.962-0.531,9.115,0.411C24.852,12.149,21.574,11,18,11V9.5c4.974,0,9.487,2.087,11.231,5.194c0.141,0.25,0.126,0.558-0.037,0.793C29.053,15.692,28.822,15.812,28.578,15.812z"/><rect width="1.5" height="11.625" x="17.25" y="14.125"/></g></svg>